# xmcd CD database file
#
# Track frame offsets:
#	150
#	18579
#	37280
#	52688
#	78410
#	95343
#	112877
#	127341
#	148996
#	163570
#	182403
#	198779
#	216852
#	229080
#	256146
#	268215
#	288434
#	302686
#
# Disc length: 4279 seconds
#
# Revision: 1
# Processed by: cddbd v1.5.1PL2 Copyright (c) Steve Scherf et al.
# Submitted via: CDex 1.51
#
DISCID=0110b512
DTITLE=The spirit of New Orleans - Golden hour
DYEAR=1999
DGENRE=Jazz
TTITLE0=Hiawatha Rag
TTITLE1=Wiegenlied
TTITLE2=Nobody´s Sweetheart
TTITLE3=Just A Closer Walk with Thee
TTITLE4=Sweet Sue
TTITLE5=Love Me Tender
TTITLE6=Swing Beth
TTITLE7=Over in the Gloryland
TTITLE8=Smash and Clear Rag
TTITLE9=1919 March
TTITLE10=I´m Alone
TTITLE11=Jeg har hört om en Stad
TTITLE12=I Saw the Light
TTITLE13=Love Songs of the Nile
TTITLE14=Wild Cat Blues
TTITLE15=Up the Lazy River
TTITLE16=Bye and Bye
TTITLE17=Old Pretty Mary´s Bobo
EXTD=YEAR: 1999
EXTT0=
EXTT1=
EXTT2=
EXTT3=
EXTT4=
EXTT5=
EXTT6=
EXTT7=
EXTT8=
EXTT9=
EXTT10=
EXTT11=
EXTT12=
EXTT13=
EXTT14=
EXTT15=
EXTT16=
EXTT17=
PLAYORDER=
